<mxfile host="app.diagrams.net" agent="Mozilla/5.0 (Windows NT 10.0; Win64; x64) AppleWebKit/537.36 (KHTML, like Gecko) Chrome/139.0.0.0 Safari/537.36" version="28.1.2">
  <diagram id="T-T4Ht-YiC5xqRJg1iFR" name="Página-1">
    <mxGraphModel dx="1745" dy="462" grid="1" gridSize="10" guides="1" tooltips="1" connect="1" arrows="1" fold="1" page="1" pageScale="1" pageWidth="827" pageHeight="1169" math="0" shadow="0">
      <root>
        <mxCell id="0" />
        <mxCell id="1" parent="0" />
        <mxCell id="YKYcJTONPcuPjy2MtPMy-22" style="edgeStyle=orthogonalEdgeStyle;rounded=0;orthogonalLoop=1;jettySize=auto;html=1;exitX=0;exitY=0.25;exitDx=0;exitDy=0;entryX=0.5;entryY=0;entryDx=0;entryDy=0;" parent="1" source="YKYcJTONPcuPjy2MtPMy-23" target="YKYcJTONPcuPjy2MtPMy-28" edge="1">
          <mxGeometry relative="1" as="geometry" />
        </mxCell>
        <mxCell id="YKYcJTONPcuPjy2MtPMy-23" value="Habitante" style="rounded=1;arcSize=10;whiteSpace=wrap;html=1;align=center;" parent="1" vertex="1">
          <mxGeometry x="150" y="200" width="100" height="40" as="geometry" />
        </mxCell>
        <mxCell id="YKYcJTONPcuPjy2MtPMy-24" style="edgeStyle=orthogonalEdgeStyle;rounded=0;orthogonalLoop=1;jettySize=auto;html=1;exitX=1;exitY=0;exitDx=0;exitDy=0;entryX=0;entryY=1;entryDx=0;entryDy=0;curved=1;" parent="1" source="YKYcJTONPcuPjy2MtPMy-26" target="YKYcJTONPcuPjy2MtPMy-34" edge="1">
          <mxGeometry relative="1" as="geometry" />
        </mxCell>
        <mxCell id="YKYcJTONPcuPjy2MtPMy-25" style="edgeStyle=orthogonalEdgeStyle;rounded=0;orthogonalLoop=1;jettySize=auto;html=1;exitX=1;exitY=1;exitDx=0;exitDy=0;entryX=0.5;entryY=0;entryDx=0;entryDy=0;curved=1;" parent="1" source="YKYcJTONPcuPjy2MtPMy-26" target="YKYcJTONPcuPjy2MtPMy-39" edge="1">
          <mxGeometry relative="1" as="geometry" />
        </mxCell>
        <mxCell id="XnnafGA7Bb56D37gFcoL-12" style="edgeStyle=orthogonalEdgeStyle;rounded=0;orthogonalLoop=1;jettySize=auto;html=1;exitX=0.5;exitY=0;exitDx=0;exitDy=0;" parent="1" source="YKYcJTONPcuPjy2MtPMy-26" edge="1">
          <mxGeometry relative="1" as="geometry">
            <mxPoint x="430" y="110" as="targetPoint" />
          </mxGeometry>
        </mxCell>
        <mxCell id="YKYcJTONPcuPjy2MtPMy-26" value="Vivienda" style="rounded=1;arcSize=10;whiteSpace=wrap;html=1;align=center;" parent="1" vertex="1">
          <mxGeometry x="410" y="200" width="100" height="40" as="geometry" />
        </mxCell>
        <mxCell id="YKYcJTONPcuPjy2MtPMy-27" value="Tipo Dni" style="ellipse;whiteSpace=wrap;html=1;align=center;fontStyle=4;" parent="1" vertex="1">
          <mxGeometry x="40" y="110" width="100" height="40" as="geometry" />
        </mxCell>
        <mxCell id="YKYcJTONPcuPjy2MtPMy-28" value="Nro Dni" style="ellipse;whiteSpace=wrap;html=1;align=center;fontStyle=4;" parent="1" vertex="1">
          <mxGeometry y="230" width="100" height="40" as="geometry" />
        </mxCell>
        <mxCell id="YKYcJTONPcuPjy2MtPMy-29" value="Nombre completo" style="ellipse;whiteSpace=wrap;html=1;align=center;" parent="1" vertex="1">
          <mxGeometry x="190" y="100" width="100" height="40" as="geometry" />
        </mxCell>
        <mxCell id="YKYcJTONPcuPjy2MtPMy-30" value="Fecha de nacimiento" style="ellipse;whiteSpace=wrap;html=1;align=center;dashed=1;" parent="1" vertex="1">
          <mxGeometry x="130" y="325" width="100" height="40" as="geometry" />
        </mxCell>
        <mxCell id="YKYcJTONPcuPjy2MtPMy-31" value="Edad" style="ellipse;whiteSpace=wrap;html=1;align=center;" parent="1" vertex="1">
          <mxGeometry y="305" width="100" height="40" as="geometry" />
        </mxCell>
        <mxCell id="YKYcJTONPcuPjy2MtPMy-32" style="edgeStyle=orthogonalEdgeStyle;rounded=0;orthogonalLoop=1;jettySize=auto;html=1;exitX=0.5;exitY=0;exitDx=0;exitDy=0;entryX=0;entryY=0.5;entryDx=0;entryDy=0;curved=1;" parent="1" source="YKYcJTONPcuPjy2MtPMy-34" target="YKYcJTONPcuPjy2MtPMy-35" edge="1">
          <mxGeometry relative="1" as="geometry" />
        </mxCell>
        <mxCell id="YKYcJTONPcuPjy2MtPMy-33" style="edgeStyle=orthogonalEdgeStyle;rounded=0;orthogonalLoop=1;jettySize=auto;html=1;exitX=1;exitY=1;exitDx=0;exitDy=0;entryX=0;entryY=1;entryDx=0;entryDy=0;curved=1;" parent="1" source="YKYcJTONPcuPjy2MtPMy-34" target="YKYcJTONPcuPjy2MtPMy-37" edge="1">
          <mxGeometry relative="1" as="geometry" />
        </mxCell>
        <mxCell id="YKYcJTONPcuPjy2MtPMy-34" value="&lt;span style=&quot;border-bottom: 1px dotted&quot;&gt;Direccion&lt;/span&gt;" style="ellipse;whiteSpace=wrap;html=1;align=center;" parent="1" vertex="1">
          <mxGeometry x="550" y="110" width="100" height="40" as="geometry" />
        </mxCell>
        <mxCell id="YKYcJTONPcuPjy2MtPMy-35" value="&lt;span style=&quot;border-bottom: 1px dotted&quot;&gt;Cd postal&lt;/span&gt;" style="ellipse;whiteSpace=wrap;html=1;align=center;" parent="1" vertex="1">
          <mxGeometry x="590" width="100" height="40" as="geometry" />
        </mxCell>
        <mxCell id="YKYcJTONPcuPjy2MtPMy-36" value="&lt;span style=&quot;border-bottom: 1px dotted&quot;&gt;Localidad&lt;/span&gt;" style="ellipse;whiteSpace=wrap;html=1;align=center;" parent="1" vertex="1">
          <mxGeometry x="650" y="40" width="100" height="40" as="geometry" />
        </mxCell>
        <mxCell id="YKYcJTONPcuPjy2MtPMy-37" value="&lt;span style=&quot;border-bottom: 1px dotted&quot;&gt;Calle - nro&lt;/span&gt;" style="ellipse;whiteSpace=wrap;html=1;align=center;" parent="1" vertex="1">
          <mxGeometry x="690" y="90" width="100" height="40" as="geometry" />
        </mxCell>
        <mxCell id="YKYcJTONPcuPjy2MtPMy-38" style="edgeStyle=orthogonalEdgeStyle;rounded=0;orthogonalLoop=1;jettySize=auto;html=1;exitX=1;exitY=0;exitDx=0;exitDy=0;entryX=0;entryY=0.75;entryDx=0;entryDy=0;entryPerimeter=0;curved=1;" parent="1" source="YKYcJTONPcuPjy2MtPMy-34" target="YKYcJTONPcuPjy2MtPMy-36" edge="1">
          <mxGeometry relative="1" as="geometry" />
        </mxCell>
        <mxCell id="YKYcJTONPcuPjy2MtPMy-39" value="Tamaño" style="ellipse;whiteSpace=wrap;html=1;align=center;" parent="1" vertex="1">
          <mxGeometry x="590" y="250" width="100" height="40" as="geometry" />
        </mxCell>
        <mxCell id="YKYcJTONPcuPjy2MtPMy-40" style="edgeStyle=orthogonalEdgeStyle;rounded=0;orthogonalLoop=1;jettySize=auto;html=1;exitX=0.5;exitY=0;exitDx=0;exitDy=0;entryX=0.38;entryY=0.975;entryDx=0;entryDy=0;entryPerimeter=0;" parent="1" source="YKYcJTONPcuPjy2MtPMy-23" target="YKYcJTONPcuPjy2MtPMy-29" edge="1">
          <mxGeometry relative="1" as="geometry" />
        </mxCell>
        <mxCell id="YKYcJTONPcuPjy2MtPMy-41" style="edgeStyle=orthogonalEdgeStyle;rounded=0;orthogonalLoop=1;jettySize=auto;html=1;exitX=0.25;exitY=0;exitDx=0;exitDy=0;entryX=0.75;entryY=1;entryDx=0;entryDy=0;entryPerimeter=0;" parent="1" source="YKYcJTONPcuPjy2MtPMy-23" target="YKYcJTONPcuPjy2MtPMy-27" edge="1">
          <mxGeometry relative="1" as="geometry" />
        </mxCell>
        <mxCell id="YKYcJTONPcuPjy2MtPMy-42" style="edgeStyle=orthogonalEdgeStyle;rounded=0;orthogonalLoop=1;jettySize=auto;html=1;exitX=0;exitY=0.75;exitDx=0;exitDy=0;entryX=1.01;entryY=0.325;entryDx=0;entryDy=0;entryPerimeter=0;" parent="1" source="YKYcJTONPcuPjy2MtPMy-23" target="YKYcJTONPcuPjy2MtPMy-31" edge="1">
          <mxGeometry relative="1" as="geometry" />
        </mxCell>
        <mxCell id="YKYcJTONPcuPjy2MtPMy-43" style="edgeStyle=orthogonalEdgeStyle;rounded=0;orthogonalLoop=1;jettySize=auto;html=1;exitX=0.25;exitY=1;exitDx=0;exitDy=0;entryX=0.41;entryY=0;entryDx=0;entryDy=0;entryPerimeter=0;" parent="1" source="YKYcJTONPcuPjy2MtPMy-23" target="YKYcJTONPcuPjy2MtPMy-30" edge="1">
          <mxGeometry relative="1" as="geometry" />
        </mxCell>
        <mxCell id="YKYcJTONPcuPjy2MtPMy-44" value="" style="endArrow=none;html=1;rounded=0;entryX=0;entryY=0.5;entryDx=0;entryDy=0;" parent="1" target="YKYcJTONPcuPjy2MtPMy-45" edge="1">
          <mxGeometry width="50" height="50" relative="1" as="geometry">
            <mxPoint x="330" y="220" as="sourcePoint" />
            <mxPoint x="410" y="220" as="targetPoint" />
          </mxGeometry>
        </mxCell>
        <mxCell id="YKYcJTONPcuPjy2MtPMy-45" value="Alquila" style="shape=rhombus;perimeter=rhombusPerimeter;whiteSpace=wrap;html=1;align=center;" parent="1" vertex="1">
          <mxGeometry x="304" y="205" width="60" height="30" as="geometry" />
        </mxCell>
        <mxCell id="YKYcJTONPcuPjy2MtPMy-46" value="" style="endArrow=none;html=1;rounded=0;" parent="1" edge="1">
          <mxGeometry relative="1" as="geometry">
            <mxPoint x="364" y="219.5" as="sourcePoint" />
            <mxPoint x="410" y="220" as="targetPoint" />
          </mxGeometry>
        </mxCell>
        <mxCell id="YKYcJTONPcuPjy2MtPMy-47" value="1" style="resizable=0;html=1;whiteSpace=wrap;align=right;verticalAlign=bottom;" parent="YKYcJTONPcuPjy2MtPMy-46" connectable="0" vertex="1">
          <mxGeometry x="1" relative="1" as="geometry" />
        </mxCell>
        <mxCell id="YKYcJTONPcuPjy2MtPMy-48" value="" style="endArrow=none;html=1;rounded=0;entryX=1;entryY=0.5;entryDx=0;entryDy=0;exitX=0;exitY=0.5;exitDx=0;exitDy=0;" parent="1" source="YKYcJTONPcuPjy2MtPMy-45" target="YKYcJTONPcuPjy2MtPMy-23" edge="1">
          <mxGeometry relative="1" as="geometry">
            <mxPoint x="310" y="290" as="sourcePoint" />
            <mxPoint x="350" y="310" as="targetPoint" />
          </mxGeometry>
        </mxCell>
        <mxCell id="YKYcJTONPcuPjy2MtPMy-49" value="1" style="resizable=0;html=1;whiteSpace=wrap;align=right;verticalAlign=bottom;" parent="YKYcJTONPcuPjy2MtPMy-48" connectable="0" vertex="1">
          <mxGeometry x="1" relative="1" as="geometry" />
        </mxCell>
        <mxCell id="XnnafGA7Bb56D37gFcoL-2" value="Pertenece" style="shape=rhombus;perimeter=rhombusPerimeter;whiteSpace=wrap;html=1;align=center;" parent="1" vertex="1">
          <mxGeometry x="430" y="305" width="60" height="35" as="geometry" />
        </mxCell>
        <mxCell id="XnnafGA7Bb56D37gFcoL-18" style="edgeStyle=orthogonalEdgeStyle;rounded=0;orthogonalLoop=1;jettySize=auto;html=1;exitX=0.5;exitY=1;exitDx=0;exitDy=0;entryX=0.5;entryY=0;entryDx=0;entryDy=0;" parent="1" source="XnnafGA7Bb56D37gFcoL-5" target="XnnafGA7Bb56D37gFcoL-11" edge="1">
          <mxGeometry relative="1" as="geometry" />
        </mxCell>
        <mxCell id="XnnafGA7Bb56D37gFcoL-20" style="edgeStyle=orthogonalEdgeStyle;rounded=0;orthogonalLoop=1;jettySize=auto;html=1;exitX=1;exitY=0.5;exitDx=0;exitDy=0;entryX=0;entryY=0.5;entryDx=0;entryDy=0;" parent="1" source="XnnafGA7Bb56D37gFcoL-5" target="XnnafGA7Bb56D37gFcoL-8" edge="1">
          <mxGeometry relative="1" as="geometry" />
        </mxCell>
        <mxCell id="XnnafGA7Bb56D37gFcoL-5" value="Municipio" style="rounded=1;arcSize=10;whiteSpace=wrap;html=1;align=center;" parent="1" vertex="1">
          <mxGeometry x="410" y="390" width="100" height="40" as="geometry" />
        </mxCell>
        <mxCell id="XnnafGA7Bb56D37gFcoL-8" value="Nombre" style="ellipse;whiteSpace=wrap;html=1;align=center;" parent="1" vertex="1">
          <mxGeometry x="560" y="390" width="100" height="40" as="geometry" />
        </mxCell>
        <mxCell id="XnnafGA7Bb56D37gFcoL-9" value="Intendente Actual" style="ellipse;whiteSpace=wrap;html=1;align=center;" parent="1" vertex="1">
          <mxGeometry x="510" y="460" width="100" height="40" as="geometry" />
        </mxCell>
        <mxCell id="XnnafGA7Bb56D37gFcoL-11" value="Cod Municipal" style="ellipse;whiteSpace=wrap;html=1;align=center;fontStyle=4;" parent="1" vertex="1">
          <mxGeometry x="370" y="460" width="100" height="40" as="geometry" />
        </mxCell>
        <mxCell id="XnnafGA7Bb56D37gFcoL-13" value="&lt;span style=&quot;border-bottom: 1px dotted&quot;&gt;Cod. Vivienda&lt;/span&gt;" style="ellipse;whiteSpace=wrap;html=1;align=center;" parent="1" vertex="1">
          <mxGeometry x="380" y="70" width="100" height="40" as="geometry" />
        </mxCell>
        <mxCell id="XnnafGA7Bb56D37gFcoL-14" value="" style="endArrow=none;html=1;rounded=0;entryX=0.5;entryY=0;entryDx=0;entryDy=0;" parent="1" target="XnnafGA7Bb56D37gFcoL-5" edge="1">
          <mxGeometry relative="1" as="geometry">
            <mxPoint x="460" y="340" as="sourcePoint" />
            <mxPoint x="620" y="340" as="targetPoint" />
          </mxGeometry>
        </mxCell>
        <mxCell id="XnnafGA7Bb56D37gFcoL-15" value="1" style="resizable=0;html=1;whiteSpace=wrap;align=right;verticalAlign=bottom;" parent="XnnafGA7Bb56D37gFcoL-14" connectable="0" vertex="1">
          <mxGeometry x="1" relative="1" as="geometry">
            <mxPoint x="10" as="offset" />
          </mxGeometry>
        </mxCell>
        <mxCell id="XnnafGA7Bb56D37gFcoL-16" value="" style="endArrow=none;html=1;rounded=0;entryX=0.5;entryY=1;entryDx=0;entryDy=0;exitX=0.5;exitY=0;exitDx=0;exitDy=0;" parent="1" source="XnnafGA7Bb56D37gFcoL-2" target="YKYcJTONPcuPjy2MtPMy-26" edge="1">
          <mxGeometry relative="1" as="geometry">
            <mxPoint x="460" y="300" as="sourcePoint" />
            <mxPoint x="710" y="330" as="targetPoint" />
          </mxGeometry>
        </mxCell>
        <mxCell id="XnnafGA7Bb56D37gFcoL-17" value="1" style="resizable=0;html=1;whiteSpace=wrap;align=right;verticalAlign=bottom;" parent="XnnafGA7Bb56D37gFcoL-16" connectable="0" vertex="1">
          <mxGeometry x="1" relative="1" as="geometry">
            <mxPoint y="20" as="offset" />
          </mxGeometry>
        </mxCell>
        <mxCell id="XnnafGA7Bb56D37gFcoL-19" style="edgeStyle=orthogonalEdgeStyle;rounded=0;orthogonalLoop=1;jettySize=auto;html=1;exitX=1;exitY=1;exitDx=0;exitDy=0;entryX=0.316;entryY=0.075;entryDx=0;entryDy=0;entryPerimeter=0;" parent="1" source="XnnafGA7Bb56D37gFcoL-5" target="XnnafGA7Bb56D37gFcoL-9" edge="1">
          <mxGeometry relative="1" as="geometry" />
        </mxCell>
        <mxCell id="XnnafGA7Bb56D37gFcoL-21" value="Ejercicio2" style="text;html=1;align=center;verticalAlign=middle;resizable=0;points=[];autosize=1;strokeColor=none;fillColor=none;" parent="1" vertex="1">
          <mxGeometry x="130" y="8" width="80" height="30" as="geometry" />
        </mxCell>
        <mxCell id="eZaDwVetiAiupszuZ_4H-1" value="AVION" style="rounded=1;arcSize=10;whiteSpace=wrap;html=1;align=center;" vertex="1" parent="1">
          <mxGeometry x="-680" y="140" width="100" height="40" as="geometry" />
        </mxCell>
        <mxCell id="eZaDwVetiAiupszuZ_4H-2" value="3. Dado el siguiente esquema de base de datos relacional, obtener al menos&lt;br/&gt;un DER del cual se haya podido derivar." style="text;html=1;align=center;verticalAlign=middle;resizable=0;points=[];autosize=1;strokeColor=none;fillColor=none;" vertex="1" parent="1">
          <mxGeometry x="-827" y="3" width="430" height="40" as="geometry" />
        </mxCell>
        <mxCell id="eZaDwVetiAiupszuZ_4H-6" value="VUELO" style="rounded=1;arcSize=10;whiteSpace=wrap;html=1;align=center;" vertex="1" parent="1">
          <mxGeometry x="-790" y="270" width="100" height="40" as="geometry" />
        </mxCell>
        <mxCell id="eZaDwVetiAiupszuZ_4H-7" value="AEROPUERTO" style="rounded=1;arcSize=10;whiteSpace=wrap;html=1;align=center;" vertex="1" parent="1">
          <mxGeometry x="-540" y="248" width="100" height="40" as="geometry" />
        </mxCell>
        <mxCell id="eZaDwVetiAiupszuZ_4H-8" value="PASAJERO" style="rounded=1;arcSize=10;whiteSpace=wrap;html=1;align=center;" vertex="1" parent="1">
          <mxGeometry x="-360" y="60" width="100" height="40" as="geometry" />
        </mxCell>
        <mxCell id="eZaDwVetiAiupszuZ_4H-9" value="&lt;span style=&quot;color: rgba(0, 0, 0, 0); font-family: monospace; font-size: 0px; text-align: start;&quot;&gt;%3CmxGraphModel%3E%3Croot%3E%3CmxCell%20id%3D%220%22%2F%3E%3CmxCell%20id%3D%221%22%20parent%3D%220%22%2F%3E%3CmxCell%20id%3D%222%22%20value%3D%22AVION%22%20style%3D%22rounded%3D1%3BarcSize%3D10%3BwhiteSpace%3Dwrap%3Bhtml%3D1%3Balign%3Dcenter%3B%22%20vertex%3D%221%22%20parent%3D%221%22%3E%3CmxGeometry%20x%3D%22-680%22%20y%3D%22220%22%20width%3D%22100%22%20height%3D%2240%22%20as%3D%22geometry%22%2F%3E%3C%2FmxCell%3E%3C%2Froot%3E%3C%2FmxGraphModel%3E&lt;/span&gt;" style="text;html=1;align=center;verticalAlign=middle;resizable=0;points=[];autosize=1;strokeColor=none;fillColor=none;" vertex="1" parent="1">
          <mxGeometry x="-710" y="328" width="20" height="30" as="geometry" />
        </mxCell>
        <mxCell id="eZaDwVetiAiupszuZ_4H-10" value="Ubicacion" style="rounded=1;arcSize=10;whiteSpace=wrap;html=1;align=center;" vertex="1" parent="1">
          <mxGeometry x="-410" y="190" width="100" height="40" as="geometry" />
        </mxCell>
        <mxCell id="eZaDwVetiAiupszuZ_4H-35" style="edgeStyle=orthogonalEdgeStyle;rounded=0;orthogonalLoop=1;jettySize=auto;html=1;exitX=0.5;exitY=0;exitDx=0;exitDy=0;entryX=0.5;entryY=1;entryDx=0;entryDy=0;" edge="1" parent="1" source="eZaDwVetiAiupszuZ_4H-11" target="eZaDwVetiAiupszuZ_4H-34">
          <mxGeometry relative="1" as="geometry" />
        </mxCell>
        <mxCell id="eZaDwVetiAiupszuZ_4H-11" value="TARIFA" style="rounded=1;arcSize=10;whiteSpace=wrap;html=1;align=center;" vertex="1" parent="1">
          <mxGeometry x="-670" y="405" width="100" height="40" as="geometry" />
        </mxCell>
        <mxCell id="eZaDwVetiAiupszuZ_4H-12" value="PASAJE" style="rounded=1;arcSize=10;whiteSpace=wrap;html=1;align=center;" vertex="1" parent="1">
          <mxGeometry x="-250" y="305" width="100" height="40" as="geometry" />
        </mxCell>
        <mxCell id="eZaDwVetiAiupszuZ_4H-14" value="TIPO_DOC" style="rounded=1;arcSize=10;whiteSpace=wrap;html=1;align=center;" vertex="1" parent="1">
          <mxGeometry x="-230" y="125" width="100" height="40" as="geometry" />
        </mxCell>
        <mxCell id="eZaDwVetiAiupszuZ_4H-15" value="CLASE" style="rounded=1;arcSize=10;whiteSpace=wrap;html=1;align=center;" vertex="1" parent="1">
          <mxGeometry x="-520" y="85" width="100" height="40" as="geometry" />
        </mxCell>
        <mxCell id="eZaDwVetiAiupszuZ_4H-16" value="Destinado a" style="shape=rhombus;perimeter=rhombusPerimeter;whiteSpace=wrap;html=1;align=center;" vertex="1" parent="1">
          <mxGeometry x="-795" y="165" width="70" height="40" as="geometry" />
        </mxCell>
        <mxCell id="eZaDwVetiAiupszuZ_4H-19" value="" style="endArrow=none;html=1;rounded=0;" edge="1" parent="1">
          <mxGeometry relative="1" as="geometry">
            <mxPoint x="-810" y="80" as="sourcePoint" />
            <mxPoint x="-650" y="80" as="targetPoint" />
          </mxGeometry>
        </mxCell>
        <mxCell id="eZaDwVetiAiupszuZ_4H-20" value="1" style="resizable=0;html=1;whiteSpace=wrap;align=right;verticalAlign=bottom;" connectable="0" vertex="1" parent="eZaDwVetiAiupszuZ_4H-19">
          <mxGeometry x="1" relative="1" as="geometry" />
        </mxCell>
        <mxCell id="eZaDwVetiAiupszuZ_4H-21" value="" style="endArrow=none;html=1;rounded=0;" edge="1" parent="1">
          <mxGeometry relative="1" as="geometry">
            <mxPoint x="-810" y="108.89" as="sourcePoint" />
            <mxPoint x="-650" y="108.89" as="targetPoint" />
          </mxGeometry>
        </mxCell>
        <mxCell id="eZaDwVetiAiupszuZ_4H-22" value="N" style="resizable=0;html=1;whiteSpace=wrap;align=right;verticalAlign=bottom;" connectable="0" vertex="1" parent="eZaDwVetiAiupszuZ_4H-21">
          <mxGeometry x="1" relative="1" as="geometry" />
        </mxCell>
        <mxCell id="eZaDwVetiAiupszuZ_4H-23" value="" style="endArrow=none;html=1;rounded=0;entryX=0.5;entryY=1;entryDx=0;entryDy=0;exitX=0.5;exitY=0;exitDx=0;exitDy=0;" edge="1" parent="1" source="eZaDwVetiAiupszuZ_4H-6" target="eZaDwVetiAiupszuZ_4H-16">
          <mxGeometry relative="1" as="geometry">
            <mxPoint x="-750" y="140" as="sourcePoint" />
            <mxPoint x="-510" y="130" as="targetPoint" />
          </mxGeometry>
        </mxCell>
        <mxCell id="eZaDwVetiAiupszuZ_4H-24" value="1" style="resizable=0;html=1;whiteSpace=wrap;align=right;verticalAlign=bottom;" connectable="0" vertex="1" parent="eZaDwVetiAiupszuZ_4H-23">
          <mxGeometry x="1" relative="1" as="geometry">
            <mxPoint y="40" as="offset" />
          </mxGeometry>
        </mxCell>
        <mxCell id="eZaDwVetiAiupszuZ_4H-25" value="" style="endArrow=none;html=1;rounded=0;exitX=1;exitY=0.5;exitDx=0;exitDy=0;entryX=0;entryY=0.5;entryDx=0;entryDy=0;" edge="1" parent="1" source="eZaDwVetiAiupszuZ_4H-16" target="eZaDwVetiAiupszuZ_4H-1">
          <mxGeometry relative="1" as="geometry">
            <mxPoint x="-690" y="130" as="sourcePoint" />
            <mxPoint x="-700" y="110" as="targetPoint" />
          </mxGeometry>
        </mxCell>
        <mxCell id="eZaDwVetiAiupszuZ_4H-26" value="1" style="resizable=0;html=1;whiteSpace=wrap;align=right;verticalAlign=bottom;" connectable="0" vertex="1" parent="eZaDwVetiAiupszuZ_4H-25">
          <mxGeometry x="1" relative="1" as="geometry" />
        </mxCell>
        <mxCell id="eZaDwVetiAiupszuZ_4H-27" value="" style="endArrow=none;html=1;rounded=0;exitX=1;exitY=0.5;exitDx=0;exitDy=0;entryX=0;entryY=0.5;entryDx=0;entryDy=0;" edge="1" parent="1" source="eZaDwVetiAiupszuZ_4H-6" target="eZaDwVetiAiupszuZ_4H-29">
          <mxGeometry relative="1" as="geometry">
            <mxPoint x="-700" y="219.62" as="sourcePoint" />
            <mxPoint x="-540" y="219.62" as="targetPoint" />
          </mxGeometry>
        </mxCell>
        <mxCell id="eZaDwVetiAiupszuZ_4H-28" value="1" style="resizable=0;html=1;whiteSpace=wrap;align=right;verticalAlign=bottom;" connectable="0" vertex="1" parent="eZaDwVetiAiupszuZ_4H-27">
          <mxGeometry x="1" relative="1" as="geometry">
            <mxPoint x="-15" as="offset" />
          </mxGeometry>
        </mxCell>
        <mxCell id="eZaDwVetiAiupszuZ_4H-29" value="Con destino a" style="shape=rhombus;perimeter=rhombusPerimeter;whiteSpace=wrap;html=1;align=center;" vertex="1" parent="1">
          <mxGeometry x="-640" y="288" width="70" height="40" as="geometry" />
        </mxCell>
        <mxCell id="eZaDwVetiAiupszuZ_4H-32" value="" style="endArrow=none;html=1;rounded=0;exitX=1;exitY=0.5;exitDx=0;exitDy=0;entryX=0;entryY=0.5;entryDx=0;entryDy=0;" edge="1" parent="1" source="eZaDwVetiAiupszuZ_4H-29" target="eZaDwVetiAiupszuZ_4H-7">
          <mxGeometry relative="1" as="geometry">
            <mxPoint x="-620" y="210" as="sourcePoint" />
            <mxPoint x="-460" y="210" as="targetPoint" />
          </mxGeometry>
        </mxCell>
        <mxCell id="eZaDwVetiAiupszuZ_4H-33" value="1" style="resizable=0;html=1;whiteSpace=wrap;align=right;verticalAlign=bottom;" connectable="0" vertex="1" parent="eZaDwVetiAiupszuZ_4H-32">
          <mxGeometry x="1" relative="1" as="geometry" />
        </mxCell>
        <mxCell id="eZaDwVetiAiupszuZ_4H-36" style="edgeStyle=orthogonalEdgeStyle;rounded=0;orthogonalLoop=1;jettySize=auto;html=1;exitX=0.5;exitY=0;exitDx=0;exitDy=0;entryX=0.5;entryY=1;entryDx=0;entryDy=0;" edge="1" parent="1" source="eZaDwVetiAiupszuZ_4H-34" target="eZaDwVetiAiupszuZ_4H-7">
          <mxGeometry relative="1" as="geometry" />
        </mxCell>
        <mxCell id="eZaDwVetiAiupszuZ_4H-34" value="" style="shape=rhombus;perimeter=rhombusPerimeter;whiteSpace=wrap;html=1;align=center;" vertex="1" parent="1">
          <mxGeometry x="-480" y="365" width="70" height="40" as="geometry" />
        </mxCell>
        <mxCell id="eZaDwVetiAiupszuZ_4H-53" value="Ejercicio 4" style="text;html=1;align=center;verticalAlign=middle;resizable=0;points=[];autosize=1;strokeColor=none;fillColor=none;" vertex="1" parent="1">
          <mxGeometry x="10" y="520" width="80" height="30" as="geometry" />
        </mxCell>
        <mxCell id="eZaDwVetiAiupszuZ_4H-56" value="" style="endArrow=none;html=1;rounded=0;" edge="1" parent="1">
          <mxGeometry relative="1" as="geometry">
            <mxPoint x="130" y="530" as="sourcePoint" />
            <mxPoint x="290" y="530" as="targetPoint" />
          </mxGeometry>
        </mxCell>
        <mxCell id="eZaDwVetiAiupszuZ_4H-57" value="1" style="resizable=0;html=1;whiteSpace=wrap;align=right;verticalAlign=bottom;" connectable="0" vertex="1" parent="eZaDwVetiAiupszuZ_4H-56">
          <mxGeometry x="1" relative="1" as="geometry" />
        </mxCell>
        <mxCell id="eZaDwVetiAiupszuZ_4H-58" value="" style="endArrow=none;html=1;rounded=0;" edge="1" parent="1">
          <mxGeometry relative="1" as="geometry">
            <mxPoint x="350" y="530" as="sourcePoint" />
            <mxPoint x="510" y="530" as="targetPoint" />
          </mxGeometry>
        </mxCell>
        <mxCell id="eZaDwVetiAiupszuZ_4H-59" value="N" style="resizable=0;html=1;whiteSpace=wrap;align=right;verticalAlign=bottom;" connectable="0" vertex="1" parent="eZaDwVetiAiupszuZ_4H-58">
          <mxGeometry x="1" relative="1" as="geometry" />
        </mxCell>
        <mxCell id="eZaDwVetiAiupszuZ_4H-67" value="pasajero" style="whiteSpace=wrap;html=1;align=center;" vertex="1" parent="1">
          <mxGeometry x="150" y="630" width="100" height="40" as="geometry" />
        </mxCell>
        <mxCell id="eZaDwVetiAiupszuZ_4H-68" style="edgeStyle=orthogonalEdgeStyle;rounded=0;orthogonalLoop=1;jettySize=auto;html=1;" edge="1" parent="1" source="eZaDwVetiAiupszuZ_4H-69" target="eZaDwVetiAiupszuZ_4H-67">
          <mxGeometry relative="1" as="geometry">
            <Array as="points">
              <mxPoint x="200" y="610" />
            </Array>
          </mxGeometry>
        </mxCell>
        <mxCell id="eZaDwVetiAiupszuZ_4H-69" value="pasaporte" style="ellipse;whiteSpace=wrap;html=1;align=center;fontStyle=4;" vertex="1" parent="1">
          <mxGeometry x="25" y="610" width="100" height="40" as="geometry" />
        </mxCell>
        <mxCell id="eZaDwVetiAiupszuZ_4H-70" style="edgeStyle=orthogonalEdgeStyle;rounded=0;orthogonalLoop=1;jettySize=auto;html=1;" edge="1" parent="1" source="eZaDwVetiAiupszuZ_4H-76" target="eZaDwVetiAiupszuZ_4H-80">
          <mxGeometry relative="1" as="geometry" />
        </mxCell>
        <mxCell id="eZaDwVetiAiupszuZ_4H-71" style="edgeStyle=orthogonalEdgeStyle;rounded=0;orthogonalLoop=1;jettySize=auto;html=1;entryX=0.5;entryY=0;entryDx=0;entryDy=0;" edge="1" parent="1" source="eZaDwVetiAiupszuZ_4H-76" target="eZaDwVetiAiupszuZ_4H-79">
          <mxGeometry relative="1" as="geometry" />
        </mxCell>
        <mxCell id="eZaDwVetiAiupszuZ_4H-72" style="edgeStyle=orthogonalEdgeStyle;rounded=0;orthogonalLoop=1;jettySize=auto;html=1;entryX=0.5;entryY=0;entryDx=0;entryDy=0;" edge="1" parent="1" source="eZaDwVetiAiupszuZ_4H-76" target="eZaDwVetiAiupszuZ_4H-77">
          <mxGeometry relative="1" as="geometry" />
        </mxCell>
        <mxCell id="eZaDwVetiAiupszuZ_4H-73" style="edgeStyle=orthogonalEdgeStyle;rounded=0;orthogonalLoop=1;jettySize=auto;html=1;entryX=0.5;entryY=0;entryDx=0;entryDy=0;" edge="1" parent="1" source="eZaDwVetiAiupszuZ_4H-76" target="eZaDwVetiAiupszuZ_4H-78">
          <mxGeometry relative="1" as="geometry" />
        </mxCell>
        <mxCell id="eZaDwVetiAiupszuZ_4H-76" value="vuelo" style="whiteSpace=wrap;html=1;align=center;" vertex="1" parent="1">
          <mxGeometry x="150" y="800" width="100" height="40" as="geometry" />
        </mxCell>
        <mxCell id="eZaDwVetiAiupszuZ_4H-77" value="nroVuelo" style="ellipse;whiteSpace=wrap;html=1;align=center;fontStyle=4;" vertex="1" parent="1">
          <mxGeometry x="245" y="870" width="100" height="40" as="geometry" />
        </mxCell>
        <mxCell id="eZaDwVetiAiupszuZ_4H-78" value="hora" style="ellipse;whiteSpace=wrap;html=1;align=center;" vertex="1" parent="1">
          <mxGeometry x="145" y="870" width="100" height="40" as="geometry" />
        </mxCell>
        <mxCell id="eZaDwVetiAiupszuZ_4H-79" value="fecha" style="ellipse;whiteSpace=wrap;html=1;align=center;" vertex="1" parent="1">
          <mxGeometry x="45" y="870" width="100" height="40" as="geometry" />
        </mxCell>
        <mxCell id="eZaDwVetiAiupszuZ_4H-80" value="CiudadEscala" style="ellipse;whiteSpace=wrap;html=1;align=center;" vertex="1" parent="1">
          <mxGeometry x="25" y="780" width="100" height="40" as="geometry" />
        </mxCell>
        <mxCell id="eZaDwVetiAiupszuZ_4H-81" style="edgeStyle=orthogonalEdgeStyle;rounded=0;orthogonalLoop=1;jettySize=auto;html=1;" edge="1" parent="1" source="eZaDwVetiAiupszuZ_4H-86" target="eZaDwVetiAiupszuZ_4H-96">
          <mxGeometry relative="1" as="geometry" />
        </mxCell>
        <mxCell id="eZaDwVetiAiupszuZ_4H-82" style="edgeStyle=orthogonalEdgeStyle;rounded=0;orthogonalLoop=1;jettySize=auto;html=1;" edge="1" parent="1" source="eZaDwVetiAiupszuZ_4H-86" target="eZaDwVetiAiupszuZ_4H-98">
          <mxGeometry relative="1" as="geometry" />
        </mxCell>
        <mxCell id="eZaDwVetiAiupszuZ_4H-83" style="edgeStyle=orthogonalEdgeStyle;rounded=0;orthogonalLoop=1;jettySize=auto;html=1;" edge="1" parent="1" source="eZaDwVetiAiupszuZ_4H-86" target="eZaDwVetiAiupszuZ_4H-99">
          <mxGeometry relative="1" as="geometry" />
        </mxCell>
        <mxCell id="eZaDwVetiAiupszuZ_4H-84" style="edgeStyle=orthogonalEdgeStyle;rounded=0;orthogonalLoop=1;jettySize=auto;html=1;" edge="1" parent="1" source="eZaDwVetiAiupszuZ_4H-86" target="eZaDwVetiAiupszuZ_4H-97">
          <mxGeometry relative="1" as="geometry" />
        </mxCell>
        <mxCell id="eZaDwVetiAiupszuZ_4H-85" style="edgeStyle=orthogonalEdgeStyle;rounded=0;orthogonalLoop=1;jettySize=auto;html=1;" edge="1" parent="1" source="eZaDwVetiAiupszuZ_4H-86" target="eZaDwVetiAiupszuZ_4H-95">
          <mxGeometry relative="1" as="geometry" />
        </mxCell>
        <mxCell id="eZaDwVetiAiupszuZ_4H-86" value="Avion" style="whiteSpace=wrap;html=1;align=center;" vertex="1" parent="1">
          <mxGeometry x="365" y="1040" width="100" height="40" as="geometry" />
        </mxCell>
        <mxCell id="eZaDwVetiAiupszuZ_4H-87" style="edgeStyle=orthogonalEdgeStyle;rounded=0;orthogonalLoop=1;jettySize=auto;html=1;entryX=0.5;entryY=1;entryDx=0;entryDy=0;" edge="1" parent="1" source="eZaDwVetiAiupszuZ_4H-91" target="eZaDwVetiAiupszuZ_4H-102">
          <mxGeometry relative="1" as="geometry" />
        </mxCell>
        <mxCell id="eZaDwVetiAiupszuZ_4H-88" style="edgeStyle=orthogonalEdgeStyle;rounded=0;orthogonalLoop=1;jettySize=auto;html=1;" edge="1" parent="1" source="eZaDwVetiAiupszuZ_4H-91" target="eZaDwVetiAiupszuZ_4H-101">
          <mxGeometry relative="1" as="geometry" />
        </mxCell>
        <mxCell id="eZaDwVetiAiupszuZ_4H-89" style="edgeStyle=orthogonalEdgeStyle;rounded=0;orthogonalLoop=1;jettySize=auto;html=1;entryX=0.5;entryY=1;entryDx=0;entryDy=0;" edge="1" parent="1" source="eZaDwVetiAiupszuZ_4H-91" target="eZaDwVetiAiupszuZ_4H-100">
          <mxGeometry relative="1" as="geometry" />
        </mxCell>
        <mxCell id="eZaDwVetiAiupszuZ_4H-91" value="personal" style="whiteSpace=wrap;html=1;align=center;" vertex="1" parent="1">
          <mxGeometry x="600" y="690" width="100" height="40" as="geometry" />
        </mxCell>
        <mxCell id="eZaDwVetiAiupszuZ_4H-92" style="edgeStyle=orthogonalEdgeStyle;rounded=0;orthogonalLoop=1;jettySize=auto;html=1;" edge="1" parent="1" source="eZaDwVetiAiupszuZ_4H-94" target="eZaDwVetiAiupszuZ_4H-103">
          <mxGeometry relative="1" as="geometry" />
        </mxCell>
        <mxCell id="eZaDwVetiAiupszuZ_4H-94" value="piloto" style="whiteSpace=wrap;html=1;align=center;" vertex="1" parent="1">
          <mxGeometry x="710" y="850" width="100" height="40" as="geometry" />
        </mxCell>
        <mxCell id="eZaDwVetiAiupszuZ_4H-95" value="nroAvion" style="ellipse;whiteSpace=wrap;html=1;align=center;fontStyle=4;" vertex="1" parent="1">
          <mxGeometry x="490" y="1040" width="100" height="40" as="geometry" />
        </mxCell>
        <mxCell id="eZaDwVetiAiupszuZ_4H-96" value="modelo" style="ellipse;whiteSpace=wrap;html=1;align=center;" vertex="1" parent="1">
          <mxGeometry x="240" y="1040" width="100" height="40" as="geometry" />
        </mxCell>
        <mxCell id="eZaDwVetiAiupszuZ_4H-97" value="hangar" style="ellipse;whiteSpace=wrap;html=1;align=center;" vertex="1" parent="1">
          <mxGeometry x="465" y="1110" width="100" height="40" as="geometry" />
        </mxCell>
        <mxCell id="eZaDwVetiAiupszuZ_4H-98" value="capacidad" style="ellipse;whiteSpace=wrap;html=1;align=center;" vertex="1" parent="1">
          <mxGeometry x="370" y="1150" width="100" height="40" as="geometry" />
        </mxCell>
        <mxCell id="eZaDwVetiAiupszuZ_4H-99" value="fabricante" style="ellipse;whiteSpace=wrap;html=1;align=center;" vertex="1" parent="1">
          <mxGeometry x="280" y="1104" width="100" height="40" as="geometry" />
        </mxCell>
        <mxCell id="eZaDwVetiAiupszuZ_4H-100" value="Area" style="ellipse;whiteSpace=wrap;html=1;align=center;" vertex="1" parent="1">
          <mxGeometry x="710" y="640" width="100" height="40" as="geometry" />
        </mxCell>
        <mxCell id="eZaDwVetiAiupszuZ_4H-101" value="nombreApe" style="ellipse;whiteSpace=wrap;html=1;align=center;" vertex="1" parent="1">
          <mxGeometry x="590" y="620" width="100" height="40" as="geometry" />
        </mxCell>
        <mxCell id="eZaDwVetiAiupszuZ_4H-102" value="cod" style="ellipse;whiteSpace=wrap;html=1;align=center;fontStyle=4;" vertex="1" parent="1">
          <mxGeometry x="480" y="640" width="100" height="40" as="geometry" />
        </mxCell>
        <mxCell id="eZaDwVetiAiupszuZ_4H-103" value="HrVuelo" style="ellipse;whiteSpace=wrap;html=1;align=center;" vertex="1" parent="1">
          <mxGeometry x="840" y="870" width="100" height="40" as="geometry" />
        </mxCell>
        <mxCell id="eZaDwVetiAiupszuZ_4H-104" style="edgeStyle=orthogonalEdgeStyle;rounded=0;orthogonalLoop=1;jettySize=auto;html=1;" edge="1" parent="1" source="eZaDwVetiAiupszuZ_4H-106" target="eZaDwVetiAiupszuZ_4H-107">
          <mxGeometry relative="1" as="geometry" />
        </mxCell>
        <mxCell id="eZaDwVetiAiupszuZ_4H-106" value="tipoAvion" style="whiteSpace=wrap;html=1;align=center;" vertex="1" parent="1">
          <mxGeometry x="690" y="1010" width="100" height="40" as="geometry" />
        </mxCell>
        <mxCell id="eZaDwVetiAiupszuZ_4H-107" value="cod" style="ellipse;whiteSpace=wrap;html=1;align=center;fontStyle=4;" vertex="1" parent="1">
          <mxGeometry x="740" y="1090" width="100" height="40" as="geometry" />
        </mxCell>
        <mxCell id="eZaDwVetiAiupszuZ_4H-108" value="EJ4&lt;br&gt;" style="text;html=1;align=center;verticalAlign=middle;resizable=0;points=[];autosize=1;strokeColor=none;fillColor=none;" vertex="1" parent="1">
          <mxGeometry x="20" y="570" width="40" height="20" as="geometry" />
        </mxCell>
        <mxCell id="eZaDwVetiAiupszuZ_4H-109" value="COMPRA" style="shape=rhombus;perimeter=rhombusPerimeter;whiteSpace=wrap;html=1;align=center;" vertex="1" parent="1">
          <mxGeometry x="167.5" y="710" width="65" height="40" as="geometry" />
        </mxCell>
        <mxCell id="eZaDwVetiAiupszuZ_4H-110" value="" style="endArrow=none;html=1;rounded=0;exitX=0.5;exitY=0;exitDx=0;exitDy=0;entryX=0.5;entryY=1;entryDx=0;entryDy=0;" edge="1" parent="1" source="eZaDwVetiAiupszuZ_4H-109" target="eZaDwVetiAiupszuZ_4H-67">
          <mxGeometry relative="1" as="geometry">
            <mxPoint x="390" y="640" as="sourcePoint" />
            <mxPoint x="550" y="640" as="targetPoint" />
          </mxGeometry>
        </mxCell>
        <mxCell id="eZaDwVetiAiupszuZ_4H-111" value="N" style="resizable=0;html=1;whiteSpace=wrap;align=right;verticalAlign=bottom;" connectable="0" vertex="1" parent="eZaDwVetiAiupszuZ_4H-110">
          <mxGeometry x="1" relative="1" as="geometry">
            <mxPoint y="20" as="offset" />
          </mxGeometry>
        </mxCell>
        <mxCell id="eZaDwVetiAiupszuZ_4H-112" value="" style="endArrow=none;html=1;rounded=0;exitX=0.5;exitY=0;exitDx=0;exitDy=0;entryX=0.5;entryY=1;entryDx=0;entryDy=0;" edge="1" parent="1" source="eZaDwVetiAiupszuZ_4H-76" target="eZaDwVetiAiupszuZ_4H-109">
          <mxGeometry relative="1" as="geometry">
            <mxPoint x="370" y="650" as="sourcePoint" />
            <mxPoint x="530" y="650" as="targetPoint" />
          </mxGeometry>
        </mxCell>
        <mxCell id="eZaDwVetiAiupszuZ_4H-113" value="1" style="resizable=0;html=1;whiteSpace=wrap;align=right;verticalAlign=bottom;" connectable="0" vertex="1" parent="eZaDwVetiAiupszuZ_4H-112">
          <mxGeometry x="1" relative="1" as="geometry">
            <mxPoint x="10" y="50" as="offset" />
          </mxGeometry>
        </mxCell>
        <mxCell id="eZaDwVetiAiupszuZ_4H-114" value="Asignado a&amp;nbsp;" style="shape=rhombus;perimeter=rhombusPerimeter;whiteSpace=wrap;html=1;align=center;" vertex="1" parent="1">
          <mxGeometry x="415" y="790" width="65" height="40" as="geometry" />
        </mxCell>
        <mxCell id="eZaDwVetiAiupszuZ_4H-115" value="" style="endArrow=none;html=1;rounded=0;exitX=1;exitY=0.5;exitDx=0;exitDy=0;entryX=0;entryY=0.5;entryDx=0;entryDy=0;" edge="1" parent="1" source="eZaDwVetiAiupszuZ_4H-76" target="eZaDwVetiAiupszuZ_4H-114">
          <mxGeometry relative="1" as="geometry">
            <mxPoint x="380" y="730" as="sourcePoint" />
            <mxPoint x="540" y="730" as="targetPoint" />
          </mxGeometry>
        </mxCell>
        <mxCell id="eZaDwVetiAiupszuZ_4H-116" value="1" style="resizable=0;html=1;whiteSpace=wrap;align=right;verticalAlign=bottom;" connectable="0" vertex="1" parent="eZaDwVetiAiupszuZ_4H-115">
          <mxGeometry x="1" relative="1" as="geometry">
            <mxPoint x="-145" y="10" as="offset" />
          </mxGeometry>
        </mxCell>
        <mxCell id="eZaDwVetiAiupszuZ_4H-117" value="" style="endArrow=none;html=1;rounded=0;exitX=1;exitY=0.5;exitDx=0;exitDy=0;entryX=0.5;entryY=1;entryDx=0;entryDy=0;" edge="1" parent="1" source="eZaDwVetiAiupszuZ_4H-114" target="eZaDwVetiAiupszuZ_4H-91">
          <mxGeometry relative="1" as="geometry">
            <mxPoint x="420" y="700" as="sourcePoint" />
            <mxPoint x="580" y="700" as="targetPoint" />
          </mxGeometry>
        </mxCell>
        <mxCell id="eZaDwVetiAiupszuZ_4H-118" value="N" style="resizable=0;html=1;whiteSpace=wrap;align=right;verticalAlign=bottom;" connectable="0" vertex="1" parent="eZaDwVetiAiupszuZ_4H-117">
          <mxGeometry x="1" relative="1" as="geometry">
            <mxPoint y="20" as="offset" />
          </mxGeometry>
        </mxCell>
        <mxCell id="eZaDwVetiAiupszuZ_4H-119" value="Pertenece" style="shape=rhombus;double=1;perimeter=rhombusPerimeter;whiteSpace=wrap;html=1;align=center;" vertex="1" parent="1">
          <mxGeometry x="710" y="760" width="70" height="40" as="geometry" />
        </mxCell>
        <mxCell id="eZaDwVetiAiupszuZ_4H-121" value="" style="endArrow=none;html=1;rounded=0;exitX=0.5;exitY=1;exitDx=0;exitDy=0;entryX=0.5;entryY=0;entryDx=0;entryDy=0;" edge="1" parent="1" source="eZaDwVetiAiupszuZ_4H-114" target="eZaDwVetiAiupszuZ_4H-86">
          <mxGeometry relative="1" as="geometry">
            <mxPoint x="510" y="890" as="sourcePoint" />
            <mxPoint x="670" y="890" as="targetPoint" />
          </mxGeometry>
        </mxCell>
        <mxCell id="eZaDwVetiAiupszuZ_4H-122" value="1" style="resizable=0;html=1;whiteSpace=wrap;align=right;verticalAlign=bottom;" connectable="0" vertex="1" parent="eZaDwVetiAiupszuZ_4H-121">
          <mxGeometry x="1" relative="1" as="geometry" />
        </mxCell>
        <mxCell id="eZaDwVetiAiupszuZ_4H-123" value="Pilotea" style="shape=rhombus;perimeter=rhombusPerimeter;whiteSpace=wrap;html=1;align=center;" vertex="1" parent="1">
          <mxGeometry x="690" y="930" width="75" height="40" as="geometry" />
        </mxCell>
        <mxCell id="eZaDwVetiAiupszuZ_4H-124" value="" style="endArrow=none;html=1;rounded=0;exitX=0.5;exitY=0;exitDx=0;exitDy=0;entryX=0;entryY=0.5;entryDx=0;entryDy=0;" edge="1" parent="1" source="eZaDwVetiAiupszuZ_4H-123" target="eZaDwVetiAiupszuZ_4H-94">
          <mxGeometry relative="1" as="geometry">
            <mxPoint x="610" y="870" as="sourcePoint" />
            <mxPoint x="770" y="870" as="targetPoint" />
          </mxGeometry>
        </mxCell>
        <mxCell id="eZaDwVetiAiupszuZ_4H-125" value="1" style="resizable=0;html=1;whiteSpace=wrap;align=right;verticalAlign=bottom;" connectable="0" vertex="1" parent="eZaDwVetiAiupszuZ_4H-124">
          <mxGeometry x="1" relative="1" as="geometry" />
        </mxCell>
        <mxCell id="eZaDwVetiAiupszuZ_4H-128" value="" style="endArrow=none;html=1;rounded=0;exitX=0.5;exitY=1;exitDx=0;exitDy=0;entryX=0.5;entryY=0;entryDx=0;entryDy=0;" edge="1" parent="1" source="eZaDwVetiAiupszuZ_4H-123" target="eZaDwVetiAiupszuZ_4H-106">
          <mxGeometry relative="1" as="geometry">
            <mxPoint x="730" y="1010" as="sourcePoint" />
            <mxPoint x="837" y="960" as="targetPoint" />
          </mxGeometry>
        </mxCell>
        <mxCell id="eZaDwVetiAiupszuZ_4H-129" value="1" style="resizable=0;html=1;whiteSpace=wrap;align=right;verticalAlign=bottom;" connectable="0" vertex="1" parent="eZaDwVetiAiupszuZ_4H-128">
          <mxGeometry x="1" relative="1" as="geometry" />
        </mxCell>
        <mxCell id="eZaDwVetiAiupszuZ_4H-130" value="" style="endArrow=none;html=1;rounded=0;entryX=1;entryY=1;entryDx=0;entryDy=0;exitX=0.5;exitY=0;exitDx=0;exitDy=0;" edge="1" parent="1" source="eZaDwVetiAiupszuZ_4H-119" target="eZaDwVetiAiupszuZ_4H-91">
          <mxGeometry relative="1" as="geometry">
            <mxPoint x="660" y="780" as="sourcePoint" />
            <mxPoint x="820" y="780" as="targetPoint" />
          </mxGeometry>
        </mxCell>
        <mxCell id="eZaDwVetiAiupszuZ_4H-131" value="N" style="resizable=0;html=1;whiteSpace=wrap;align=right;verticalAlign=bottom;" connectable="0" vertex="1" parent="eZaDwVetiAiupszuZ_4H-130">
          <mxGeometry x="1" relative="1" as="geometry" />
        </mxCell>
        <mxCell id="eZaDwVetiAiupszuZ_4H-132" value="" style="endArrow=none;html=1;rounded=0;exitX=0.5;exitY=0;exitDx=0;exitDy=0;entryX=0.5;entryY=1;entryDx=0;entryDy=0;" edge="1" parent="1" source="eZaDwVetiAiupszuZ_4H-94" target="eZaDwVetiAiupszuZ_4H-119">
          <mxGeometry relative="1" as="geometry">
            <mxPoint x="380" y="640" as="sourcePoint" />
            <mxPoint x="540" y="640" as="targetPoint" />
          </mxGeometry>
        </mxCell>
        <mxCell id="eZaDwVetiAiupszuZ_4H-133" value="1" style="resizable=0;html=1;whiteSpace=wrap;align=right;verticalAlign=bottom;" connectable="0" vertex="1" parent="eZaDwVetiAiupszuZ_4H-132">
          <mxGeometry x="1" relative="1" as="geometry">
            <mxPoint x="25" y="50" as="offset" />
          </mxGeometry>
        </mxCell>
        <mxCell id="eZaDwVetiAiupszuZ_4H-135" value="es de" style="shape=rhombus;perimeter=rhombusPerimeter;whiteSpace=wrap;html=1;align=center;" vertex="1" parent="1">
          <mxGeometry x="560" y="960" width="75" height="40" as="geometry" />
        </mxCell>
        <mxCell id="eZaDwVetiAiupszuZ_4H-136" value="" style="endArrow=none;html=1;rounded=0;exitX=0.75;exitY=0;exitDx=0;exitDy=0;" edge="1" parent="1" source="eZaDwVetiAiupszuZ_4H-86">
          <mxGeometry relative="1" as="geometry">
            <mxPoint x="510" y="950" as="sourcePoint" />
            <mxPoint x="560" y="980" as="targetPoint" />
          </mxGeometry>
        </mxCell>
        <mxCell id="eZaDwVetiAiupszuZ_4H-137" value="1" style="resizable=0;html=1;whiteSpace=wrap;align=right;verticalAlign=bottom;" connectable="0" vertex="1" parent="eZaDwVetiAiupszuZ_4H-136">
          <mxGeometry x="1" relative="1" as="geometry" />
        </mxCell>
        <mxCell id="eZaDwVetiAiupszuZ_4H-138" value="" style="endArrow=none;html=1;rounded=0;exitX=1;exitY=0.5;exitDx=0;exitDy=0;entryX=0;entryY=0.5;entryDx=0;entryDy=0;" edge="1" parent="1" source="eZaDwVetiAiupszuZ_4H-135" target="eZaDwVetiAiupszuZ_4H-106">
          <mxGeometry relative="1" as="geometry">
            <mxPoint x="640" y="1030" as="sourcePoint" />
            <mxPoint x="800" y="1030" as="targetPoint" />
          </mxGeometry>
        </mxCell>
        <mxCell id="eZaDwVetiAiupszuZ_4H-139" value="1" style="resizable=0;html=1;whiteSpace=wrap;align=right;verticalAlign=bottom;" connectable="0" vertex="1" parent="eZaDwVetiAiupszuZ_4H-138">
          <mxGeometry x="1" relative="1" as="geometry" />
        </mxCell>
        <mxCell id="eZaDwVetiAiupszuZ_4H-140" value="MODELO RACIONAL&lt;div&gt;PASAJERO(&lt;u&gt;pasaporte&lt;/u&gt;&lt;br&gt;VUELO(&lt;u&gt;numeroVuelo&lt;/u&gt;, ciudadEscala, Fecha,hora)&lt;br&gt;PERSONAL(&lt;u&gt;codigo&lt;/u&gt;, nombreApe,Area)&lt;br&gt;AVION(&lt;u&gt;nroAvion&lt;/u&gt;, modelo, fabricante, capacidad, hangar)&lt;br&gt;TIPOAVION(&lt;u&gt;codigo)&lt;/u&gt;&lt;/div&gt;" style="text;html=1;align=center;verticalAlign=middle;resizable=0;points=[];autosize=1;strokeColor=none;fillColor=none;" vertex="1" parent="1">
          <mxGeometry x="-100" y="940" width="330" height="100" as="geometry" />
        </mxCell>
        <mxCell id="eZaDwVetiAiupszuZ_4H-142" value="Fk&amp;nbsp;&lt;br&gt;Vuelo.Pasaporte --&amp;gt; Pasajero.Pasaporte.&lt;div&gt;&lt;br/&gt;&lt;/div&gt;" style="text;html=1;align=center;verticalAlign=middle;resizable=0;points=[];autosize=1;strokeColor=none;fillColor=none;" vertex="1" parent="1">
          <mxGeometry x="-50" y="1053" width="240" height="60" as="geometry" />
        </mxCell>
      </root>
    </mxGraphModel>
  </diagram>
</mxfile>
